<?xml version="1.0" encoding="UTF-8" ?>
<!DOCTYPE svg PUBLIC "-//W3C//DTD SVG 1.1//EN" "http://www.w3.org/Graphics/SVG/1.1/DTD/svg11.dtd">
<svg width="600pt" height="600pt" viewBox="0 0 600 600" version="1.1" xmlns="http://www.w3.org/2000/svg">
<g id="#ffffffff">
<path fill="#ffffff" opacity="1.00" d=" M 0.00 0.00 L 176.97 0.00 C 117.92 58.92 58.91 117.91 0.00 176.98 L 0.00 0.00 Z" />
<path fill="#ffffff" opacity="1.00" d=" M 421.86 0.00 L 600.00 0.00 L 600.00 179.81 C 599.75 176.93 597.17 175.44 595.43 173.51 C 537.54 115.70 479.75 57.80 421.86 0.00 Z" />
<path fill="#ffffff" opacity="1.00" d=" M 177.88 1.51 C 258.80 1.24 339.73 1.44 420.65 1.41 C 479.13 60.23 537.95 118.73 596.53 177.45 C 597.87 178.60 597.23 180.52 597.39 182.05 C 597.41 261.50 597.32 340.95 597.44 420.40 C 540.54 477.52 483.42 534.43 426.45 591.49 C 424.46 593.51 422.48 595.52 420.37 597.42 C 339.59 597.24 258.80 597.60 178.02 597.24 C 119.34 538.14 60.12 479.56 1.50 420.41 C 1.82 339.59 1.54 258.76 1.64 177.94 C 59.45 120.31 117.08 62.50 174.85 4.82 C 175.93 3.79 176.95 2.69 177.88 1.51 M 178.48 41.44 C 128.44 91.42 78.50 141.52 28.40 191.45 C 28.34 239.27 28.39 287.09 28.37 334.91 C 28.46 361.04 28.18 387.20 28.51 413.30 C 82.25 467.24 136.12 521.04 190.01 574.84 C 263.02 574.83 336.04 574.83 409.06 574.84 C 410.33 574.68 411.95 575.15 412.90 574.02 C 465.33 521.44 518.06 469.17 570.49 416.60 C 571.64 415.15 573.95 414.17 573.82 412.05 C 573.83 339.01 573.83 265.97 573.82 192.92 C 573.99 190.55 571.41 189.43 570.14 187.79 C 517.74 135.23 464.95 83.07 412.59 30.48 C 411.51 29.01 409.48 29.79 407.97 29.59 C 335.32 29.73 262.66 29.43 190.02 29.74 C 186.35 33.81 182.28 37.49 178.48 41.44 Z" />
<path fill="#ffffff" opacity="1.00" d=" M 214.56 54.57 C 216.34 54.16 218.09 53.51 219.95 53.61 C 271.62 53.63 323.30 53.61 374.98 53.62 C 379.18 53.79 383.85 52.69 387.37 55.66 C 386.74 62.53 383.51 68.83 381.53 75.38 C 379.77 76.25 378.18 77.90 376.06 77.63 C 326.03 77.59 275.99 77.63 225.96 77.61 C 223.95 77.59 221.84 77.12 220.28 75.79 C 219.31 74.93 218.56 73.86 218.21 72.61 C 216.71 68.40 215.23 64.18 213.70 59.98 C 212.89 58.18 213.52 56.13 214.56 54.57 Z" />
<path fill="#ffffff" opacity="1.00" d=" M 410.95 68.76 C 413.36 66.81 416.14 67.95 418.22 69.74 C 434.33 86.26 450.87 102.39 467.10 118.81 C 468.72 120.12 468.82 122.31 469.42 124.15 C 467.41 128.02 463.83 130.63 460.93 133.77 C 458.89 135.73 456.95 138.32 453.96 138.74 C 452.69 138.87 451.92 137.66 451.04 136.99 C 436.39 122.32 421.72 107.65 407.04 93.00 C 404.80 90.66 402.45 87.37 403.74 83.99 C 406.08 78.88 408.65 73.88 410.95 68.76 Z" />
<path fill="#ffffff" opacity="1.00" d=" M 187.01 69.41 C 188.73 68.52 191.38 67.15 192.66 69.44 C 196.11 74.60 198.31 80.51 201.36 85.93 C 200.86 88.77 199.56 91.38 197.39 93.30 C 182.99 107.58 168.82 122.09 154.50 136.44 C 153.26 137.74 151.60 138.53 149.80 138.59 C 149.31 138.24 148.32 137.54 147.83 137.20 C 144.49 133.63 140.89 130.32 137.53 126.78 C 136.39 125.45 135.03 123.92 135.53 122.02 C 136.38 119.62 138.63 118.19 140.29 116.40 C 155.90 100.77 171.26 84.87 187.01 69.41 Z" />
<path fill="#ffffff" opacity="1.00" d=" M 229.30 87.53 C 231.75 86.56 234.42 86.85 237.00 86.82 C 254.01 86.84 271.03 86.83 288.04 86.83 C 291.79 86.73 294.97 90.25 294.38 94.02 C 293.95 99.50 295.40 105.29 293.24 110.50 C 276.20 111.25 259.10 110.60 242.03 110.84 C 238.68 110.79 234.30 111.40 232.44 107.85 C 230.41 103.04 228.87 98.03 226.93 93.17 C 225.97 91.16 226.87 87.94 229.30 87.53 Z" />
<path fill="#ffffff" opacity="1.00" d=" M 308.82 87.87 C 311.76 86.81 314.91 87.23 317.98 87.18 C 335.36 87.18 352.75 87.17 370.13 87.18 C 372.05 86.99 373.32 88.62 374.67 89.68 C 374.64 95.68 371.41 100.94 369.82 106.58 C 369.01 110.01 365.01 110.81 362.00 110.70 C 347.98 110.98 333.95 110.76 319.93 110.82 C 316.26 110.72 312.52 111.23 308.94 110.24 C 308.62 109.75 307.98 108.77 307.67 108.28 C 308.02 101.49 306.56 94.42 308.82 87.87 Z" />
<path fill="#ffffff" opacity="1.00" d=" M 197.52 106.56 C 199.36 104.86 200.92 102.81 203.01 101.39 C 204.55 101.11 206.77 100.51 207.65 102.28 C 210.69 106.55 212.46 111.54 215.03 116.08 C 217.07 119.30 214.74 123.03 212.34 125.29 C 200.32 137.29 188.57 149.55 176.44 161.44 C 163.49 174.83 150.00 187.68 137.17 201.18 C 134.45 203.79 131.77 206.43 129.18 209.17 C 126.33 212.32 122.24 215.98 117.65 214.23 C 112.71 211.86 107.72 209.58 102.84 207.08 C 102.44 206.05 102.03 205.02 101.60 204.01 C 102.77 200.36 105.97 198.10 108.49 195.44 C 138.07 165.72 167.93 136.28 197.52 106.56 Z" />
<path fill="#ffffff" opacity="1.00" d=" M 396.76 101.83 C 398.87 100.52 401.30 100.21 403.24 102.08 C 417.24 115.59 430.62 129.75 444.52 143.37 C 444.92 145.49 446.31 147.89 444.69 149.84 C 441.42 154.15 437.00 157.42 433.25 161.29 C 432.08 161.69 430.91 162.09 429.75 162.50 C 418.49 152.04 407.93 140.80 396.95 130.03 C 393.73 126.52 388.69 123.34 389.16 117.91 C 391.54 112.49 394.18 107.17 396.76 101.83 Z" />
<path fill="#ffffff" opacity="1.00" d=" M 242.47 122.71 C 244.24 122.17 246.02 121.51 247.91 121.61 C 283.27 121.63 318.64 121.62 354.01 121.62 C 355.57 121.58 356.92 122.55 358.36 123.03 C 358.39 125.00 358.50 127.04 357.68 128.89 C 355.90 133.77 354.21 138.67 352.46 143.56 C 350.39 144.45 348.35 145.76 346.01 145.63 C 315.32 145.61 284.63 145.62 253.94 145.62 C 251.17 145.56 248.02 144.48 246.67 141.89 C 244.98 137.11 243.30 132.33 241.56 127.57 C 240.73 125.89 241.94 124.27 242.47 122.71 Z" />
<path fill="#ffffff" opacity="1.00" d=" M 121.05 135.64 C 122.36 135.24 123.70 134.96 125.03 134.65 C 130.02 136.69 132.93 141.62 136.96 144.98 C 138.69 146.62 141.18 149.61 139.01 151.84 C 123.83 167.06 108.80 182.43 93.53 197.55 C 91.34 199.79 88.14 201.20 85.02 200.12 C 80.21 197.86 75.35 195.72 70.65 193.23 C 69.51 192.56 69.22 191.13 68.55 190.09 C 69.45 187.95 70.68 185.97 72.43 184.43 C 88.80 168.33 104.72 151.78 121.05 135.64 Z" />
<path fill="#ffffff" opacity="1.00" d=" M 381.57 138.89 C 382.33 137.18 383.83 135.49 385.81 135.36 C 387.74 135.71 389.20 137.17 390.58 138.47 C 399.87 147.80 409.17 157.12 418.51 166.40 C 421.17 168.51 421.75 173.00 419.38 175.53 C 416.10 178.90 412.44 181.88 409.18 185.25 C 407.90 185.85 406.60 187.07 405.08 186.62 C 403.52 185.71 402.35 184.28 401.07 183.04 C 393.18 174.90 384.86 167.15 377.15 158.85 C 375.76 157.13 375.21 154.98 374.74 152.87 C 376.80 148.11 379.36 143.59 381.57 138.89 Z" />
<path fill="#ffffff" opacity="1.00" d=" M 472.53 140.58 C 475.39 137.77 478.41 133.49 483.03 134.60 C 500.08 151.86 517.27 168.99 534.49 186.09 C 535.00 187.47 535.46 188.88 535.86 190.32 C 531.62 194.71 525.47 196.29 520.25 199.19 C 517.47 200.99 513.76 199.71 511.61 197.50 C 498.54 184.55 485.60 171.49 472.57 158.52 C 469.98 155.71 466.86 153.33 465.01 149.92 C 466.00 145.82 469.90 143.58 472.53 140.58 Z" />
<path fill="#ffffff" opacity="1.00" d=" M 215.29 137.55 C 216.08 137.24 217.64 136.62 218.42 136.31 C 222.61 139.28 223.80 144.62 226.16 148.92 C 226.99 151.23 229.25 153.35 228.50 155.98 C 228.00 159.68 224.78 161.97 222.40 164.50 C 202.36 184.76 182.16 204.86 162.20 225.19 C 159.75 227.84 156.16 229.79 152.53 228.20 C 147.68 225.75 142.63 223.65 137.90 220.99 C 136.12 218.55 137.50 215.28 139.58 213.52 C 164.87 188.25 190.02 162.84 215.29 137.55 Z" />
<path fill="#ffffff" opacity="1.00" d=" M 451.03 162.03 C 453.15 159.61 456.89 156.51 460.05 159.00 C 473.98 172.73 487.53 186.84 501.48 200.54 C 503.12 201.89 502.49 204.24 502.65 206.08 C 497.66 209.33 492.13 211.55 486.86 214.26 C 484.13 215.30 480.96 214.00 479.05 211.93 C 468.87 201.82 458.77 191.63 448.60 181.51 C 446.01 178.86 443.09 176.43 441.41 173.05 C 443.73 168.68 447.89 165.76 451.03 162.03 Z" />
<path fill="#ffffff" opacity="1.00" d=" M 318.98 180.16 C 326.62 180.00 334.12 178.26 341.80 178.53 C 338.36 187.81 333.94 196.74 329.77 205.72 C 329.38 207.51 328.50 209.14 327.72 210.79 C 318.88 230.22 309.95 249.62 301.20 269.09 C 300.92 269.49 300.36 270.29 300.08 270.69 C 316.73 264.03 332.71 255.58 349.81 250.00 C 349.91 254.71 349.72 259.81 347.91 264.13 C 348.30 269.74 345.98 275.30 345.65 280.96 C 342.02 302.75 338.67 324.63 334.57 346.32 C 340.02 346.30 345.47 346.51 350.91 346.97 C 359.54 347.24 368.20 347.25 376.82 347.94 C 372.98 354.57 367.71 360.23 363.22 366.42 C 346.61 387.75 329.76 408.90 312.99 430.11 C 306.86 415.97 300.99 401.70 294.33 387.80 C 287.32 373.45 281.03 358.73 274.93 343.97 C 282.96 344.13 291.00 344.21 299.00 344.93 C 301.80 345.18 304.68 345.22 307.39 344.35 C 307.58 336.18 309.53 328.16 309.83 320.00 C 309.87 317.66 311.13 315.49 310.93 313.14 C 310.57 310.49 311.95 308.08 312.27 305.50 C 311.56 305.64 310.93 305.93 310.37 306.35 C 307.37 307.95 304.60 309.91 301.73 311.72 C 293.22 316.86 284.89 322.30 276.47 327.58 C 264.14 334.49 252.36 342.38 240.48 350.04 C 240.15 348.36 239.62 346.64 240.03 344.93 C 248.16 302.58 256.28 260.22 264.35 217.86 C 266.29 206.65 269.18 195.56 270.27 184.23 C 274.83 183.46 279.53 184.52 284.04 183.30 C 287.56 182.48 291.23 183.65 294.71 182.54 C 298.22 181.56 301.93 182.62 305.45 181.68 C 309.88 180.45 314.62 181.85 318.98 180.16 Z" />
<path fill="#ffffff" opacity="1.00" d=" M 427.50 185.55 C 429.43 183.47 433.01 181.06 435.57 183.52 C 445.60 193.48 455.57 203.50 465.56 213.49 C 466.59 214.47 466.84 215.96 467.45 217.20 C 463.84 222.23 457.16 223.23 452.20 226.49 C 448.77 228.93 444.55 226.61 441.96 224.04 C 434.31 216.35 426.57 208.74 418.98 200.99 C 417.29 199.55 416.65 196.94 418.28 195.20 C 421.25 191.90 424.45 188.79 427.50 185.55 Z" />
<path fill="#ffffff" opacity="1.00" d=" M 56.74 213.43 C 58.84 213.05 61.02 213.11 63.04 213.86 C 67.79 215.53 72.57 217.12 77.31 218.82 C 78.38 220.85 79.69 222.88 79.56 225.28 C 79.70 261.19 79.93 297.10 79.80 333.01 C 80.53 345.97 80.03 358.97 80.19 371.95 C 80.13 375.29 79.60 379.52 76.28 381.25 C 71.78 383.09 67.14 384.59 62.62 386.39 C 60.99 387.13 59.21 386.59 57.51 386.47 C 56.69 384.76 55.74 383.00 55.83 381.05 C 55.89 351.03 55.48 321.01 55.63 290.99 C 55.80 269.31 55.22 247.64 55.39 225.97 C 55.60 221.77 54.58 217.28 56.74 213.43 Z" />
<path fill="#ffffff" opacity="1.00" d=" M 521.72 219.62 C 526.76 217.86 531.80 216.09 536.86 214.39 C 538.30 213.68 539.81 214.55 541.28 214.73 C 541.72 216.15 542.37 217.53 542.55 219.02 C 542.86 273.33 542.15 327.62 542.38 381.93 C 542.67 384.05 541.45 385.84 540.56 387.65 C 533.29 388.13 526.89 384.00 520.07 382.16 C 519.01 379.92 518.04 377.57 518.19 375.03 C 517.98 326.35 518.55 277.67 518.35 228.99 C 518.16 225.55 519.11 221.99 521.72 219.62 Z" />
<path fill="#ffffff" opacity="1.00" d=" M 91.17 225.45 C 97.87 225.62 103.78 229.23 110.18 230.81 C 111.40 232.64 112.83 234.55 112.73 236.88 C 112.98 247.27 112.69 257.67 112.86 268.07 C 113.44 273.72 113.06 279.40 113.20 285.06 C 113.34 287.21 112.83 289.31 112.24 291.36 C 109.56 293.31 106.11 292.46 103.03 292.61 C 98.58 292.43 93.88 293.33 89.71 291.31 C 89.27 289.92 88.74 288.53 88.82 287.06 C 88.82 268.37 88.83 249.68 88.82 230.99 C 88.50 228.81 90.12 227.15 91.17 225.45 Z" />
<path fill="#ffffff" opacity="1.00" d=" M 488.57 232.80 C 492.75 231.23 497.02 229.93 501.18 228.34 C 502.69 227.88 504.25 226.88 505.89 227.42 C 509.12 227.78 509.31 231.53 509.39 234.03 C 509.32 255.34 509.05 276.65 509.19 297.96 C 508.48 308.28 508.96 318.63 508.82 328.96 C 508.88 343.42 508.55 357.88 508.54 372.35 C 507.76 373.30 507.01 374.28 506.28 375.27 C 499.80 375.01 494.06 371.57 487.85 370.11 C 486.19 368.09 484.77 365.76 484.87 363.05 C 484.77 347.03 484.86 331.01 484.83 315.00 C 484.88 309.32 484.61 303.62 485.17 297.96 C 485.20 278.95 485.16 259.94 485.19 240.92 C 485.16 237.94 485.81 234.44 488.57 232.80 Z" />
<path fill="#ffffff" opacity="1.00" d=" M 123.38 246.98 C 123.19 245.03 124.30 243.35 124.99 241.62 C 132.18 241.52 138.58 245.60 145.35 247.57 C 146.46 249.59 147.69 251.69 147.61 254.09 C 147.65 265.07 147.62 276.04 147.62 287.02 C 147.67 288.62 147.09 290.13 146.58 291.62 C 143.52 292.79 140.22 292.26 137.03 292.46 C 132.93 292.57 128.65 293.19 124.76 291.53 C 124.25 290.36 123.32 289.29 123.41 287.95 C 123.37 274.29 123.42 260.63 123.38 246.98 Z" />
<path fill="#ffffff" opacity="1.00" d=" M 454.46 247.23 C 459.54 245.19 464.78 243.57 469.91 241.63 C 471.04 241.98 472.18 242.32 473.34 242.67 C 473.94 244.38 474.75 246.10 474.64 247.97 C 474.56 261.68 474.66 275.39 474.60 289.10 C 474.62 291.11 472.94 292.53 472.01 294.17 C 468.41 295.15 464.67 294.75 460.99 294.82 C 457.49 294.74 453.70 295.44 450.61 293.36 C 450.04 281.26 450.54 269.13 450.35 257.02 C 450.17 254.54 450.74 252.12 451.58 249.81 C 452.48 248.91 453.20 247.69 454.46 247.23 Z" />
<path fill="#ffffff" opacity="1.00" d=" M 125.75 306.52 C 130.60 304.51 135.93 305.72 141.01 305.37 C 143.25 305.09 145.32 305.99 147.36 306.76 C 148.02 309.80 147.79 312.92 147.80 316.00 C 147.81 325.68 147.79 335.36 147.82 345.05 C 147.75 347.20 147.56 349.52 146.33 351.36 C 144.19 354.52 139.86 354.32 136.71 355.92 C 132.84 356.88 128.51 360.36 124.74 357.32 C 124.23 355.58 123.52 353.85 123.61 352.01 C 123.64 338.68 123.64 325.35 123.61 312.02 C 123.47 309.95 124.90 308.28 125.75 306.52 Z" />
<path fill="#ffffff" opacity="1.00" d=" M 91.20 306.60 C 91.95 306.38 93.46 305.95 94.21 305.73 C 99.19 305.56 104.17 305.58 109.15 305.68 C 110.20 306.09 111.27 306.46 112.36 306.79 C 112.87 308.13 113.27 309.52 113.19 310.98 C 113.08 327.32 113.61 343.65 113.35 359.99 C 113.09 363.22 112.20 367.48 108.54 368.40 C 103.31 369.92 98.35 372.62 92.97 373.42 C 89.90 373.87 89.31 370.35 89.22 368.09 C 89.11 349.40 89.23 330.71 89.17 312.03 C 88.94 309.96 90.28 308.30 91.20 306.60 Z" />
<path fill="#ffffff" opacity="1.00" d=" M 451.57 308.73 C 456.57 307.17 461.84 308.02 466.98 307.83 C 469.47 308.15 473.22 308.04 474.08 311.01 C 474.51 312.63 474.33 314.34 474.38 316.01 C 474.29 329.35 474.48 342.69 474.29 356.02 C 473.79 356.84 473.31 357.67 472.85 358.51 C 466.60 359.41 461.10 355.53 455.24 354.04 C 451.21 353.26 450.20 348.51 450.21 345.03 C 450.14 334.33 450.19 323.63 450.19 312.93 C 450.02 311.37 450.90 310.05 451.57 308.73 Z" />
<path fill="#ffffff" opacity="1.00" d=" M 439.06 376.09 C 440.91 374.10 443.49 373.19 446.08 372.64 C 451.66 375.17 457.16 377.87 462.72 380.46 C 463.13 381.52 463.65 382.55 463.91 383.67 C 463.14 387.21 459.78 389.21 457.55 391.80 C 433.39 415.63 409.41 439.65 385.31 463.53 C 384.21 464.61 382.47 465.01 381.00 464.64 C 378.39 462.49 377.34 459.11 375.82 456.21 C 374.53 453.11 372.77 450.23 371.52 447.13 C 371.67 441.63 376.52 438.39 379.89 434.74 C 399.72 415.31 419.30 395.61 439.06 376.09 Z" />
<path fill="#ffffff" opacity="1.00" d=" M 146.86 374.99 C 150.33 372.85 154.53 375.32 157.01 377.92 C 178.11 399.17 199.28 420.36 220.31 441.68 C 222.23 443.66 223.32 446.27 223.54 449.02 C 220.75 454.43 218.39 460.05 215.57 465.45 C 213.72 466.57 211.69 466.22 209.80 465.41 C 184.24 439.59 158.68 413.75 133.06 387.98 C 131.99 386.54 130.22 383.80 132.50 382.58 C 136.95 379.48 142.14 377.63 146.86 374.99 Z" />
<path fill="#ffffff" opacity="1.00" d=" M 110.76 387.72 C 113.86 385.47 117.55 387.90 119.90 390.11 C 131.64 401.38 142.81 413.21 154.34 424.68 C 155.85 426.28 157.98 428.81 155.86 430.85 C 152.75 434.42 149.18 437.57 145.93 441.02 C 144.25 442.78 141.43 444.77 139.05 443.08 C 124.79 428.77 110.58 414.41 96.39 400.03 C 96.25 398.65 96.11 397.28 95.97 395.91 C 100.15 391.99 105.86 390.49 110.76 387.72 Z" />
<path fill="#ffffff" opacity="1.00" d=" M 473.17 391.12 C 475.61 388.72 478.94 386.18 482.56 387.60 C 487.45 390.06 492.49 392.20 497.33 394.75 C 499.87 397.61 497.85 401.16 495.43 403.29 C 463.33 434.66 431.61 466.44 399.70 498.01 C 398.26 500.06 395.86 500.41 393.51 500.29 C 389.87 496.81 388.65 491.75 386.23 487.49 C 385.34 485.45 383.56 483.30 384.68 481.01 C 385.29 478.52 387.25 476.76 388.93 474.96 C 404.91 458.95 421.07 443.14 436.99 427.08 C 448.93 414.96 461.35 403.35 473.17 391.12 Z" />
<path fill="#ffffff" opacity="1.00" d=" M 66.76 408.04 C 71.50 405.83 76.10 403.32 80.91 401.26 C 83.41 401.42 85.68 402.68 87.37 404.49 C 101.47 418.42 115.20 432.72 129.34 446.62 C 131.02 448.12 132.34 449.97 133.30 452.01 C 131.70 456.72 127.03 459.28 123.85 462.84 C 121.52 465.12 118.25 468.98 114.81 466.33 C 98.07 449.31 81.19 432.43 64.39 415.47 C 63.22 414.29 63.43 412.44 63.00 410.96 C 64.15 409.86 65.25 408.65 66.76 408.04 Z" />
<path fill="#ffffff" opacity="1.00" d=" M 504.09 407.25 C 506.95 404.36 510.39 400.52 514.92 401.55 C 520.11 404.08 525.28 406.66 530.39 409.32 C 533.01 411.90 530.70 415.53 528.47 417.45 C 490.13 455.45 451.70 493.37 413.43 531.46 C 412.17 532.86 410.24 533.16 408.49 533.50 C 403.75 528.29 401.69 521.27 398.59 515.05 C 399.54 510.74 402.84 507.72 405.86 504.77 C 438.73 472.39 471.27 439.68 504.09 407.25 Z" />
<path fill="#ffffff" opacity="1.00" d=" M 593.83 426.90 C 595.91 424.81 598.31 422.89 599.46 420.08 L 600.00 421.97 L 600.00 600.00 L 0.00 600.00 L 0.00 421.95 C 58.73 480.56 117.37 539.26 176.02 597.94 C 176.74 598.93 177.69 599.40 178.87 599.37 C 259.63 599.42 340.40 599.34 421.16 599.41 C 478.85 542.04 536.22 484.35 593.83 426.90 Z" />
<path fill="#ffffff" opacity="1.00" d=" M 163.83 441.87 C 165.28 440.21 168.49 438.23 170.22 440.55 C 181.02 451.17 191.34 462.24 202.17 472.83 C 205.13 475.79 208.66 478.71 209.35 483.11 C 207.80 487.12 205.73 490.90 204.00 494.83 C 202.75 497.34 201.86 500.52 198.81 501.33 C 197.19 500.62 195.36 500.16 194.11 498.84 C 182.61 487.05 171.00 475.37 159.39 463.69 C 156.97 460.40 151.76 457.92 153.30 453.07 C 155.55 448.34 160.47 445.73 163.83 441.87 Z" />
<path fill="#ffffff" opacity="1.00" d=" M 244.80 455.59 C 247.10 454.75 249.50 454.17 251.97 454.35 C 264.09 454.53 276.24 454.05 288.35 454.60 C 289.21 456.27 290.08 458.02 289.84 459.98 C 289.59 465.32 290.41 470.77 289.15 476.02 C 287.52 476.96 286.09 478.62 284.08 478.60 C 270.39 478.66 256.70 478.56 243.01 478.64 C 241.12 478.76 239.39 477.94 237.67 477.33 C 237.33 476.17 236.98 475.03 236.63 473.89 C 238.58 468.76 240.20 463.50 242.25 458.40 C 242.70 457.16 243.93 456.49 244.80 455.59 Z" />
<path fill="#ffffff" opacity="1.00" d=" M 303.74 455.57 C 305.06 454.87 306.41 454.03 307.98 454.18 C 318.32 454.17 328.66 454.17 339.00 454.18 C 342.19 454.15 345.76 454.56 348.09 456.97 C 349.23 459.30 349.82 461.84 350.78 464.25 C 352.10 468.34 354.39 472.37 353.52 476.83 C 352.68 477.30 351.85 477.79 351.03 478.29 C 336.71 478.46 322.38 478.31 308.06 478.36 C 306.54 478.49 305.25 477.57 303.90 477.07 C 302.31 471.86 302.93 466.41 302.81 461.05 C 302.73 459.16 303.31 457.37 303.74 455.57 Z" />
<path fill="#ffffff" opacity="1.00" d=" M 135.65 469.63 C 138.46 467.08 141.01 463.98 144.72 462.70 C 160.70 477.95 175.89 494.02 191.62 509.54 C 193.86 511.65 195.65 514.76 194.51 517.90 C 191.96 522.96 189.62 528.13 187.09 533.21 C 184.73 534.33 181.83 533.98 180.06 531.98 C 163.83 515.84 147.99 499.33 131.65 483.31 C 129.80 481.84 129.26 479.29 129.39 477.05 C 130.35 473.79 133.46 472.00 135.65 469.63 Z" />
<path fill="#ffffff" opacity="1.00" d=" M 227.85 493.05 C 230.33 491.59 233.07 490.63 235.99 490.83 C 256.01 490.90 276.03 490.69 296.05 490.94 C 316.62 491.50 337.23 490.93 357.81 491.23 C 359.20 491.30 360.56 491.59 361.93 491.89 C 362.66 492.66 363.47 493.33 364.38 493.88 C 366.39 498.91 367.95 504.11 369.86 509.19 C 370.75 510.84 369.87 512.56 369.42 514.18 C 367.35 514.93 365.18 515.35 362.97 515.21 C 325.32 514.94 287.64 515.54 250.00 514.83 C 241.56 514.67 233.08 515.16 224.65 514.56 C 223.81 513.72 222.96 512.91 222.10 512.11 C 222.40 505.38 225.88 499.38 227.85 493.05 Z" />
<path fill="#ffffff" opacity="1.00" d=" M 215.78 525.85 C 219.84 523.61 224.57 524.25 229.01 524.18 C 247.37 524.18 265.74 524.18 284.10 524.18 C 286.06 524.14 288.65 524.77 288.87 527.11 C 289.56 531.70 288.99 536.38 289.20 541.01 C 289.16 543.83 289.00 548.55 285.02 548.30 C 261.69 548.49 238.35 548.35 215.01 548.37 C 212.92 548.53 211.14 547.34 209.33 546.50 C 208.86 542.07 211.20 538.16 212.46 534.08 C 213.55 531.33 214.12 528.34 215.78 525.85 Z" />
<path fill="#ffffff" opacity="1.00" d=" M 303.82 524.58 C 325.86 524.13 347.92 524.53 369.97 524.38 C 373.08 524.27 376.01 525.70 378.06 528.00 C 379.66 533.43 381.87 538.65 383.47 544.08 C 383.74 546.62 381.55 548.60 379.07 548.35 C 355.41 548.44 331.75 548.34 308.09 548.40 C 306.06 548.47 304.51 546.93 302.83 546.04 C 301.99 540.72 302.51 535.32 302.36 529.96 C 302.20 528.03 303.00 526.26 303.82 524.58 Z" />
</g>
<g id="#010101ff">
<path fill="#010101" opacity="1.00" d=" M 176.97 0.00 L 421.86 0.00 C 479.75 57.80 537.54 115.70 595.43 173.51 C 597.17 175.44 599.75 176.93 600.00 179.81 L 600.00 421.97 L 599.46 420.08 C 598.31 422.89 595.91 424.81 593.83 426.90 C 536.22 484.35 478.85 542.04 421.16 599.41 C 340.40 599.34 259.63 599.42 178.87 599.37 C 177.69 599.40 176.74 598.93 176.02 597.94 C 117.37 539.26 58.73 480.56 0.00 421.95 L 0.00 176.98 C 58.91 117.91 117.92 58.92 176.97 0.00 M 177.88 1.51 C 176.95 2.69 175.93 3.79 174.85 4.82 C 117.08 62.50 59.45 120.31 1.64 177.94 C 1.54 258.76 1.82 339.59 1.50 420.41 C 60.12 479.56 119.34 538.14 178.02 597.24 C 258.80 597.60 339.59 597.24 420.37 597.42 C 422.48 595.52 424.46 593.51 426.45 591.49 C 483.42 534.43 540.54 477.52 597.44 420.40 C 597.32 340.95 597.41 261.50 597.39 182.05 C 597.23 180.52 597.87 178.60 596.53 177.45 C 537.95 118.73 479.13 60.23 420.65 1.41 C 339.73 1.44 258.80 1.24 177.88 1.51 Z" />
<path fill="#010101" opacity="1.00" d=" M 178.48 41.44 C 182.28 37.49 186.35 33.81 190.02 29.74 C 262.66 29.43 335.32 29.73 407.97 29.59 C 409.48 29.79 411.51 29.01 412.59 30.48 C 464.95 83.07 517.74 135.23 570.14 187.79 C 571.41 189.43 573.99 190.55 573.82 192.92 C 573.83 265.97 573.83 339.01 573.82 412.05 C 573.95 414.17 571.64 415.15 570.49 416.60 C 518.06 469.17 465.33 521.44 412.90 574.02 C 411.95 575.15 410.33 574.68 409.06 574.84 C 336.04 574.83 263.02 574.83 190.01 574.84 C 136.12 521.04 82.25 467.24 28.51 413.30 C 28.18 387.20 28.46 361.04 28.37 334.91 C 28.39 287.09 28.34 239.27 28.40 191.45 C 78.50 141.52 128.44 91.42 178.48 41.44 M 214.56 54.57 C 213.52 56.13 212.89 58.18 213.70 59.98 C 215.23 64.18 216.71 68.40 218.21 72.61 C 218.56 73.86 219.31 74.93 220.28 75.79 C 221.84 77.12 223.95 77.59 225.96 77.61 C 275.99 77.63 326.03 77.59 376.06 77.63 C 378.18 77.90 379.77 76.25 381.53 75.38 C 383.51 68.83 386.74 62.53 387.37 55.66 C 383.85 52.69 379.18 53.79 374.98 53.62 C 323.30 53.61 271.62 53.63 219.95 53.61 C 218.09 53.51 216.34 54.16 214.56 54.57 M 410.95 68.76 C 408.65 73.88 406.08 78.88 403.74 83.99 C 402.45 87.37 404.80 90.66 407.04 93.00 C 421.72 107.65 436.39 122.32 451.04 136.99 C 451.92 137.66 452.69 138.87 453.96 138.74 C 456.95 138.32 458.89 135.73 460.93 133.77 C 463.83 130.63 467.41 128.02 469.42 124.15 C 468.82 122.31 468.72 120.12 467.10 118.81 C 450.87 102.39 434.33 86.26 418.22 69.74 C 416.14 67.95 413.36 66.81 410.95 68.76 M 187.01 69.41 C 171.26 84.87 155.90 100.77 140.29 116.40 C 138.63 118.19 136.38 119.62 135.53 122.02 C 135.03 123.92 136.39 125.45 137.53 126.78 C 140.89 130.32 144.49 133.63 147.83 137.20 C 148.32 137.54 149.31 138.24 149.80 138.59 C 151.60 138.53 153.26 137.74 154.50 136.44 C 168.82 122.09 182.99 107.58 197.39 93.30 C 199.56 91.38 200.86 88.77 201.36 85.93 C 198.31 80.51 196.11 74.60 192.66 69.44 C 191.38 67.15 188.73 68.52 187.01 69.41 M 229.30 87.53 C 226.87 87.94 225.97 91.16 226.93 93.17 C 228.87 98.03 230.41 103.04 232.44 107.85 C 234.30 111.40 238.68 110.79 242.03 110.84 C 259.10 110.60 276.20 111.25 293.24 110.50 C 295.40 105.29 293.95 99.50 294.38 94.02 C 294.97 90.25 291.79 86.73 288.04 86.83 C 271.03 86.83 254.01 86.84 237.00 86.82 C 234.42 86.85 231.75 86.56 229.30 87.53 M 308.82 87.87 C 306.56 94.42 308.02 101.49 307.67 108.28 C 307.98 108.77 308.62 109.75 308.94 110.24 C 312.52 111.23 316.26 110.72 319.93 110.82 C 333.95 110.76 347.98 110.98 362.00 110.70 C 365.01 110.81 369.01 110.01 369.82 106.58 C 371.41 100.94 374.64 95.68 374.67 89.68 C 373.32 88.62 372.05 86.99 370.13 87.18 C 352.75 87.17 335.36 87.18 317.98 87.18 C 314.91 87.23 311.76 86.81 308.82 87.87 M 197.52 106.56 C 167.93 136.28 138.07 165.72 108.49 195.44 C 105.97 198.10 102.77 200.36 101.60 204.01 C 102.03 205.02 102.44 206.05 102.84 207.08 C 107.72 209.58 112.71 211.86 117.65 214.23 C 122.24 215.98 126.33 212.32 129.18 209.17 C 131.77 206.43 134.45 203.79 137.17 201.18 C 150.00 187.68 163.49 174.83 176.44 161.44 C 188.57 149.55 200.32 137.29 212.34 125.29 C 214.74 123.03 217.07 119.30 215.03 116.08 C 212.46 111.54 210.69 106.55 207.65 102.28 C 206.77 100.51 204.55 101.11 203.01 101.39 C 200.92 102.81 199.36 104.86 197.52 106.56 M 396.76 101.83 C 394.18 107.17 391.54 112.49 389.16 117.91 C 388.69 123.34 393.73 126.52 396.95 130.03 C 407.93 140.80 418.49 152.04 429.75 162.50 C 430.91 162.09 432.08 161.69 433.25 161.29 C 437.00 157.42 441.42 154.15 444.69 149.84 C 446.31 147.89 444.92 145.49 444.52 143.37 C 430.62 129.75 417.24 115.59 403.24 102.08 C 401.30 100.21 398.87 100.52 396.76 101.83 M 242.47 122.71 C 241.94 124.27 240.73 125.89 241.56 127.57 C 243.30 132.33 244.98 137.11 246.67 141.89 C 248.02 144.48 251.17 145.56 253.94 145.62 C 284.63 145.62 315.32 145.61 346.01 145.63 C 348.35 145.76 350.39 144.45 352.46 143.56 C 354.21 138.67 355.90 133.77 357.68 128.89 C 358.50 127.04 358.39 125.00 358.36 123.03 C 356.92 122.55 355.57 121.58 354.01 121.62 C 318.64 121.62 283.27 121.63 247.91 121.61 C 246.02 121.51 244.24 122.17 242.47 122.71 M 121.05 135.64 C 104.72 151.78 88.80 168.33 72.43 184.43 C 70.68 185.97 69.45 187.95 68.55 190.09 C 69.22 191.13 69.51 192.56 70.65 193.23 C 75.35 195.72 80.21 197.86 85.02 200.12 C 88.14 201.20 91.34 199.79 93.53 197.55 C 108.80 182.43 123.83 167.06 139.01 151.84 C 141.18 149.61 138.69 146.62 136.96 144.98 C 132.93 141.62 130.02 136.69 125.03 134.65 C 123.70 134.96 122.36 135.24 121.05 135.64 M 381.57 138.89 C 379.36 143.59 376.80 148.11 374.74 152.87 C 375.21 154.98 375.76 157.13 377.15 158.85 C 384.86 167.15 393.18 174.90 401.07 183.04 C 402.35 184.28 403.52 185.71 405.08 186.62 C 406.60 187.07 407.90 185.85 409.18 185.25 C 412.44 181.88 416.10 178.90 419.38 175.53 C 421.75 173.00 421.17 168.51 418.51 166.40 C 409.17 157.12 399.87 147.80 390.58 138.47 C 389.20 137.17 387.74 135.71 385.81 135.36 C 383.83 135.49 382.33 137.18 381.57 138.89 M 472.53 140.58 C 469.90 143.58 466.00 145.82 465.01 149.92 C 466.86 153.33 469.98 155.71 472.57 158.52 C 485.60 171.49 498.54 184.55 511.61 197.50 C 513.76 199.71 517.47 200.99 520.25 199.19 C 525.47 196.29 531.62 194.71 535.86 190.32 C 535.46 188.88 535.00 187.47 534.49 186.09 C 517.27 168.99 500.08 151.86 483.03 134.60 C 478.41 133.49 475.39 137.77 472.53 140.58 M 215.29 137.55 C 190.02 162.84 164.87 188.25 139.58 213.52 C 137.50 215.28 136.12 218.55 137.90 220.99 C 142.63 223.65 147.68 225.75 152.53 228.20 C 156.16 229.79 159.75 227.84 162.20 225.19 C 182.16 204.86 202.36 184.76 222.40 164.50 C 224.78 161.97 228.00 159.68 228.50 155.98 C 229.25 153.35 226.99 151.23 226.16 148.92 C 223.80 144.62 222.61 139.28 218.42 136.31 C 217.64 136.62 216.08 137.24 215.29 137.55 M 451.03 162.03 C 447.89 165.76 443.73 168.68 441.41 173.05 C 443.09 176.43 446.01 178.86 448.60 181.51 C 458.77 191.63 468.87 201.82 479.05 211.93 C 480.96 214.00 484.13 215.30 486.86 214.26 C 492.13 211.55 497.66 209.33 502.65 206.08 C 502.49 204.24 503.12 201.89 501.48 200.54 C 487.53 186.84 473.98 172.73 460.05 159.00 C 456.89 156.51 453.15 159.61 451.03 162.03 M 318.98 180.16 C 314.62 181.85 309.88 180.45 305.45 181.68 C 301.93 182.62 298.22 181.56 294.71 182.54 C 291.23 183.65 287.56 182.48 284.04 183.30 C 279.53 184.52 274.83 183.46 270.27 184.23 C 269.18 195.56 266.29 206.65 264.35 217.86 C 256.28 260.22 248.16 302.58 240.03 344.93 C 239.62 346.64 240.15 348.36 240.48 350.04 C 252.36 342.38 264.14 334.49 276.47 327.58 C 284.89 322.30 293.22 316.86 301.73 311.72 C 304.60 309.91 307.37 307.95 310.37 306.35 C 310.93 305.93 311.56 305.64 312.27 305.50 C 311.95 308.08 310.57 310.49 310.93 313.14 C 311.13 315.49 309.87 317.66 309.83 320.00 C 309.53 328.16 307.58 336.18 307.39 344.35 C 304.68 345.22 301.80 345.18 299.00 344.93 C 291.00 344.21 282.96 344.13 274.93 343.97 C 281.03 358.73 287.32 373.45 294.33 387.80 C 300.99 401.70 306.86 415.97 312.99 430.11 C 329.76 408.90 346.61 387.75 363.22 366.42 C 367.71 360.23 372.98 354.57 376.82 347.94 C 368.20 347.25 359.54 347.24 350.91 346.97 C 345.47 346.51 340.02 346.30 334.57 346.32 C 338.67 324.63 342.02 302.75 345.65 280.96 C 345.98 275.30 348.30 269.74 347.91 264.13 C 349.72 259.81 349.91 254.71 349.81 250.00 C 332.71 255.58 316.73 264.03 300.08 270.69 C 300.36 270.29 300.92 269.49 301.20 269.09 C 309.95 249.62 318.88 230.22 327.72 210.79 C 328.50 209.14 329.38 207.51 329.77 205.72 C 333.94 196.74 338.36 187.81 341.80 178.53 C 334.12 178.26 326.62 180.00 318.98 180.16 M 427.50 185.55 C 424.45 188.79 421.25 191.90 418.28 195.20 C 416.65 196.94 417.29 199.55 418.98 200.99 C 426.57 208.74 434.31 216.35 441.96 224.04 C 444.55 226.61 448.77 228.93 452.20 226.49 C 457.16 223.23 463.84 222.23 467.45 217.20 C 466.84 215.96 466.59 214.47 465.56 213.49 C 455.57 203.50 445.60 193.48 435.57 183.52 C 433.01 181.06 429.43 183.47 427.50 185.55 M 56.74 213.43 C 54.58 217.28 55.60 221.77 55.39 225.97 C 55.22 247.64 55.80 269.31 55.63 290.99 C 55.48 321.01 55.89 351.03 55.83 381.05 C 55.74 383.00 56.69 384.76 57.51 386.47 C 59.21 386.59 60.99 387.13 62.62 386.39 C 67.14 384.59 71.78 383.09 76.28 381.25 C 79.60 379.52 80.13 375.29 80.19 371.95 C 80.03 358.97 80.53 345.97 79.80 333.01 C 79.93 297.10 79.70 261.19 79.56 225.28 C 79.69 222.88 78.38 220.85 77.31 218.82 C 72.57 217.12 67.79 215.53 63.04 213.86 C 61.02 213.11 58.84 213.05 56.74 213.43 M 521.72 219.62 C 519.11 221.99 518.16 225.55 518.35 228.99 C 518.55 277.67 517.98 326.35 518.19 375.03 C 518.04 377.57 519.01 379.92 520.07 382.16 C 526.89 384.00 533.29 388.13 540.56 387.65 C 541.45 385.84 542.67 384.05 542.38 381.93 C 542.15 327.62 542.86 273.33 542.55 219.02 C 542.37 217.53 541.72 216.15 541.28 214.73 C 539.81 214.55 538.30 213.68 536.86 214.39 C 531.80 216.09 526.76 217.86 521.72 219.62 M 91.17 225.45 C 90.12 227.15 88.50 228.81 88.82 230.99 C 88.83 249.68 88.82 268.37 88.82 287.06 C 88.74 288.53 89.27 289.92 89.71 291.31 C 93.88 293.33 98.58 292.43 103.03 292.61 C 106.11 292.46 109.56 293.31 112.24 291.36 C 112.83 289.31 113.34 287.21 113.20 285.06 C 113.06 279.40 113.44 273.72 112.86 268.07 C 112.69 257.67 112.98 247.27 112.73 236.88 C 112.83 234.55 111.40 232.64 110.18 230.81 C 103.78 229.23 97.87 225.62 91.17 225.45 M 488.57 232.80 C 485.81 234.44 485.16 237.94 485.19 240.92 C 485.16 259.94 485.20 278.95 485.17 297.96 C 484.61 303.62 484.88 309.32 484.83 315.00 C 484.86 331.01 484.77 347.03 484.87 363.05 C 484.77 365.76 486.19 368.09 487.85 370.11 C 494.06 371.57 499.80 375.01 506.28 375.27 C 507.01 374.28 507.76 373.30 508.54 372.35 C 508.55 357.88 508.88 343.42 508.82 328.96 C 508.96 318.63 508.48 308.28 509.19 297.96 C 509.05 276.65 509.32 255.34 509.39 234.03 C 509.31 231.53 509.12 227.78 505.89 227.42 C 504.25 226.88 502.69 227.88 501.18 228.34 C 497.02 229.93 492.75 231.23 488.57 232.80 M 123.38 246.98 C 123.42 260.63 123.37 274.29 123.41 287.95 C 123.32 289.29 124.25 290.36 124.76 291.53 C 128.65 293.19 132.93 292.57 137.03 292.46 C 140.22 292.26 143.52 292.79 146.58 291.62 C 147.09 290.13 147.67 288.62 147.62 287.02 C 147.62 276.04 147.65 265.07 147.61 254.09 C 147.69 251.69 146.46 249.59 145.35 247.57 C 138.58 245.60 132.18 241.52 124.99 241.62 C 124.30 243.35 123.19 245.03 123.38 246.98 M 454.46 247.23 C 453.20 247.69 452.48 248.91 451.58 249.81 C 450.74 252.12 450.17 254.54 450.35 257.02 C 450.54 269.13 450.04 281.26 450.61 293.36 C 453.70 295.44 457.49 294.74 460.99 294.82 C 464.67 294.75 468.41 295.15 472.01 294.17 C 472.94 292.53 474.62 291.11 474.60 289.10 C 474.66 275.39 474.56 261.68 474.64 247.97 C 474.75 246.10 473.94 244.38 473.34 242.67 C 472.18 242.32 471.04 241.98 469.91 241.63 C 464.78 243.57 459.54 245.19 454.46 247.23 M 125.75 306.52 C 124.90 308.28 123.47 309.95 123.61 312.02 C 123.64 325.35 123.64 338.68 123.61 352.01 C 123.52 353.85 124.23 355.58 124.74 357.32 C 128.51 360.36 132.84 356.88 136.71 355.92 C 139.86 354.32 144.19 354.52 146.33 351.36 C 147.56 349.52 147.75 347.20 147.82 345.05 C 147.79 335.36 147.81 325.68 147.80 316.00 C 147.79 312.92 148.02 309.80 147.36 306.76 C 145.32 305.99 143.25 305.09 141.01 305.37 C 135.93 305.72 130.60 304.51 125.75 306.52 M 91.20 306.60 C 90.28 308.30 88.94 309.96 89.17 312.03 C 89.23 330.71 89.11 349.40 89.22 368.09 C 89.31 370.35 89.90 373.87 92.97 373.42 C 98.35 372.62 103.31 369.92 108.54 368.40 C 112.20 367.48 113.09 363.22 113.35 359.99 C 113.61 343.65 113.08 327.32 113.19 310.98 C 113.27 309.52 112.87 308.13 112.36 306.79 C 111.27 306.46 110.20 306.09 109.15 305.68 C 104.17 305.58 99.19 305.56 94.21 305.73 C 93.46 305.95 91.95 306.38 91.20 306.60 M 451.57 308.73 C 450.90 310.05 450.02 311.37 450.19 312.93 C 450.19 323.63 450.14 334.33 450.21 345.03 C 450.20 348.51 451.21 353.26 455.24 354.04 C 461.10 355.53 466.60 359.41 472.85 358.51 C 473.31 357.67 473.79 356.84 474.29 356.02 C 474.48 342.69 474.29 329.35 474.38 316.01 C 474.33 314.34 474.51 312.63 474.08 311.01 C 473.22 308.04 469.47 308.15 466.98 307.83 C 461.84 308.02 456.57 307.17 451.57 308.73 M 439.06 376.09 C 419.30 395.61 399.72 415.31 379.89 434.74 C 376.52 438.39 371.67 441.63 371.52 447.13 C 372.77 450.23 374.53 453.11 375.82 456.21 C 377.34 459.11 378.39 462.49 381.00 464.64 C 382.47 465.01 384.21 464.61 385.31 463.53 C 409.41 439.65 433.39 415.63 457.55 391.80 C 459.78 389.21 463.14 387.21 463.91 383.67 C 463.65 382.55 463.13 381.52 462.72 380.46 C 457.16 377.87 451.66 375.17 446.08 372.64 C 443.49 373.19 440.91 374.10 439.06 376.09 M 146.86 374.99 C 142.14 377.63 136.95 379.48 132.50 382.58 C 130.22 383.80 131.99 386.54 133.06 387.98 C 158.68 413.75 184.24 439.59 209.80 465.41 C 211.69 466.22 213.72 466.57 215.57 465.45 C 218.39 460.05 220.75 454.43 223.54 449.02 C 223.32 446.27 222.23 443.66 220.31 441.68 C 199.28 420.36 178.11 399.17 157.01 377.92 C 154.53 375.32 150.33 372.85 146.86 374.99 M 110.76 387.72 C 105.86 390.49 100.15 391.99 95.97 395.91 C 96.11 397.28 96.25 398.65 96.39 400.03 C 110.58 414.41 124.79 428.77 139.05 443.08 C 141.43 444.77 144.25 442.78 145.93 441.02 C 149.18 437.57 152.75 434.42 155.86 430.85 C 157.98 428.81 155.85 426.28 154.34 424.68 C 142.81 413.21 131.64 401.38 119.90 390.11 C 117.55 387.90 113.86 385.47 110.76 387.72 M 473.17 391.12 C 461.35 403.35 448.93 414.96 436.99 427.08 C 421.07 443.14 404.91 458.95 388.93 474.96 C 387.25 476.76 385.29 478.52 384.68 481.01 C 383.56 483.30 385.34 485.45 386.23 487.49 C 388.65 491.75 389.87 496.81 393.51 500.29 C 395.86 500.41 398.26 500.06 399.70 498.01 C 431.61 466.44 463.33 434.66 495.43 403.29 C 497.85 401.16 499.87 397.61 497.33 394.75 C 492.49 392.20 487.45 390.06 482.56 387.60 C 478.94 386.18 475.61 388.72 473.17 391.12 M 66.76 408.04 C 65.25 408.65 64.15 409.86 63.00 410.96 C 63.43 412.44 63.22 414.29 64.39 415.47 C 81.19 432.43 98.07 449.31 114.81 466.33 C 118.25 468.98 121.52 465.12 123.85 462.84 C 127.03 459.28 131.70 456.72 133.30 452.01 C 132.34 449.97 131.02 448.12 129.34 446.62 C 115.20 432.72 101.47 418.42 87.37 404.49 C 85.68 402.68 83.41 401.42 80.91 401.26 C 76.10 403.32 71.50 405.83 66.76 408.04 M 504.09 407.25 C 471.27 439.68 438.73 472.39 405.86 504.77 C 402.84 507.72 399.54 510.74 398.59 515.05 C 401.69 521.27 403.75 528.29 408.49 533.50 C 410.24 533.16 412.17 532.86 413.43 531.46 C 451.70 493.37 490.13 455.45 528.47 417.45 C 530.70 415.53 533.01 411.90 530.39 409.32 C 525.28 406.66 520.11 404.08 514.92 401.55 C 510.39 400.52 506.95 404.36 504.09 407.25 M 163.83 441.87 C 160.47 445.73 155.55 448.34 153.30 453.07 C 151.76 457.92 156.97 460.40 159.39 463.69 C 171.00 475.37 182.61 487.05 194.11 498.84 C 195.36 500.16 197.19 500.62 198.81 501.33 C 201.86 500.52 202.75 497.34 204.00 494.83 C 205.73 490.90 207.80 487.12 209.35 483.11 C 208.66 478.71 205.13 475.79 202.17 472.83 C 191.34 462.24 181.02 451.17 170.22 440.55 C 168.49 438.23 165.28 440.21 163.83 441.87 M 244.80 455.59 C 243.93 456.49 242.70 457.16 242.25 458.40 C 240.20 463.50 238.58 468.76 236.63 473.89 C 236.98 475.03 237.33 476.17 237.67 477.33 C 239.39 477.94 241.12 478.76 243.01 478.64 C 256.70 478.56 270.39 478.66 284.08 478.60 C 286.09 478.62 287.52 476.96 289.15 476.02 C 290.41 470.77 289.59 465.32 289.84 459.98 C 290.08 458.02 289.21 456.27 288.35 454.60 C 276.24 454.05 264.09 454.53 251.97 454.35 C 249.50 454.17 247.10 454.75 244.80 455.59 M 303.74 455.57 C 303.31 457.37 302.73 459.16 302.81 461.05 C 302.93 466.41 302.31 471.86 303.90 477.07 C 305.25 477.57 306.54 478.49 308.06 478.36 C 322.38 478.31 336.71 478.46 351.03 478.29 C 351.85 477.79 352.68 477.30 353.52 476.83 C 354.39 472.37 352.10 468.34 350.78 464.25 C 349.82 461.84 349.23 459.30 348.09 456.97 C 345.76 454.56 342.19 454.15 339.00 454.18 C 328.66 454.17 318.32 454.17 307.98 454.18 C 306.41 454.03 305.06 454.87 303.74 455.57 M 135.65 469.63 C 133.46 472.00 130.35 473.79 129.39 477.05 C 129.26 479.29 129.80 481.84 131.65 483.31 C 147.99 499.33 163.83 515.84 180.06 531.98 C 181.83 533.98 184.73 534.33 187.09 533.21 C 189.62 528.13 191.96 522.96 194.51 517.90 C 195.65 514.76 193.86 511.65 191.62 509.54 C 175.89 494.02 160.70 477.95 144.72 462.70 C 141.01 463.98 138.46 467.08 135.65 469.63 M 227.85 493.05 C 225.88 499.38 222.40 505.38 222.10 512.11 C 222.96 512.91 223.81 513.72 224.65 514.56 C 233.08 515.16 241.56 514.67 250.00 514.83 C 287.64 515.54 325.32 514.94 362.97 515.21 C 365.18 515.35 367.35 514.93 369.42 514.18 C 369.87 512.56 370.75 510.84 369.86 509.19 C 367.95 504.11 366.39 498.91 364.38 493.88 C 363.47 493.33 362.66 492.66 361.93 491.89 C 360.56 491.59 359.20 491.30 357.81 491.23 C 337.23 490.93 316.62 491.50 296.05 490.94 C 276.03 490.69 256.01 490.90 235.99 490.83 C 233.07 490.63 230.33 491.59 227.85 493.05 M 215.78 525.85 C 214.12 528.34 213.55 531.33 212.46 534.08 C 211.20 538.16 208.86 542.07 209.33 546.50 C 211.14 547.34 212.92 548.53 215.01 548.37 C 238.35 548.35 261.69 548.49 285.02 548.30 C 289.00 548.55 289.16 543.83 289.20 541.01 C 288.99 536.38 289.56 531.70 288.87 527.11 C 288.65 524.77 286.06 524.14 284.10 524.18 C 265.74 524.18 247.37 524.18 229.01 524.18 C 224.57 524.25 219.84 523.61 215.78 525.85 M 303.82 524.58 C 303.00 526.26 302.20 528.03 302.36 529.96 C 302.51 535.32 301.99 540.72 302.83 546.04 C 304.51 546.93 306.06 548.47 308.09 548.40 C 331.75 548.34 355.41 548.44 379.07 548.35 C 381.55 548.60 383.74 546.62 383.47 544.08 C 381.87 538.65 379.66 533.43 378.06 528.00 C 376.01 525.70 373.08 524.27 369.97 524.38 C 347.92 524.53 325.86 524.13 303.82 524.58 Z" />
</g>
</svg>
